<?xml version="1.0" encoding="utf-8"?>
<!-- Generator: Adobe Illustrator 16.1.0, SVG Export Plug-In . SVG Version: 6.00 Build 0)  -->
<!DOCTYPE svg PUBLIC "-//W3C//DTD SVG 1.1//EN" "http://www.w3.org/Graphics/SVG/1.1/DTD/svg11.dtd">
<svg version="1.1" id="レイヤー_1" xmlns="http://www.w3.org/2000/svg" xmlns:xlink="http://www.w3.org/1999/xlink" x="0px"
	 y="0px" width="152.00537px" height="50.36523px" viewBox="0 0 152.00537 50.36523"
	 enable-background="new 0 0 152.00537 50.36523" xml:space="preserve">
<g>
	<g>
		<path fill="#171C61" d="M54.80859,45.07422c0.46777-0.19238,0.9458-0.30957,1.43506-0.35156
			c3.25342-0.21191,5.11426-0.59961,5.58203-1.16504c0.46875-0.56445,0.70215-3.29199,0.70215-8.18945l-0.03125-3.35059v-3.51172
			l-0.12891-3.8623l0.06445-2.26758l-0.03125-2.48926v-2.93799l-0.06445-1.30762l0.06445-1.66113
			c0.01953-0.38232,0.03125-0.82812,0.03125-1.33984c0-1.34082-0.06445-2.75635-0.19141-4.24561
			c-0.08496-0.29785-0.20215-0.58594-0.35059-0.8623c-0.78711-0.40479-2.05908-0.67578-3.81152-0.81396
			c-1.75342-0.13867-2.74902-0.29346-2.98242-0.46338c-0.1709-0.12744-0.26611-0.45703-0.2876-0.98926h2.68359l8.46533,0.19141
			c2.17383,0,5.07129-0.06299,8.69141-0.19141c0,0.34082-0.02148,0.66016-0.06445,0.95703
			c-0.42578,0.10645-1.1377,0.22363-2.13574,0.35156c-2.02148,0.23438-3.25391,0.4585-3.70215,0.66943
			c-0.27441,0.10791-0.47754,0.28857-0.60547,0.54346c-0.21191,0.38184-0.33984,1.0957-0.38281,2.13867l-0.15918,4.11865
			l0.12793,14.20654v5.61816c-0.04297,1.7666-0.06348,2.96973-0.06348,3.60645c0,2.38477,0.05664,3.90625,0.1748,4.56641
			c0.11621,0.66016,0.31934,1.13281,0.60547,1.4209c0.28711,0.28711,0.76172,0.51562,1.41992,0.68555
			c0.97949,0.23438,1.74512,0.3623,2.29785,0.38281c1.18945,0.04297,1.94531,0.21289,2.26367,0.51074
			c0.06348,0.27734,0.0957,0.51074,0.0957,0.70215V46c-1.9375,0.06348-3.36426,0.0957-4.28125,0.0957
			c-0.53125,0-1.48145-0.03223-2.84277-0.0957l-4.41016,0.06348l-7.50781-0.0332h-0.60645L54.80859,45.07422z"/>
		<path fill="#171C61" d="M113.20361,7.05225c0.25586,1.63721,0.38379,3.31787,0.38379,5.04004
			c0,0.33936-0.01367,0.79736-0.0332,1.37207c-0.29883,0.06299-0.52148,0.0957-0.66797,0.0957
			c-0.12891,0-0.31055-0.02246-0.54492-0.06445c-0.8916-2.4873-2.34863-4.40186-4.36914-5.74072
			c-2.02051-1.34082-4.51855-2.01074-7.49512-2.01074c-1.57617,0-2.90332,0.18164-3.98828,0.54248
			C94.57568,6.9458,92.896,7.85547,91.45068,9.01416c-1.44922,1.15918-2.6709,2.5415-3.66992,4.14648
			c-1.00195,1.60547-1.79297,3.55078-2.37891,5.83789c-0.58496,2.28564-0.875,4.61865-0.875,7.00146
			c0,4.55078,0.68945,8.30859,2.07422,11.27637c1.38086,2.96484,3.27344,5.08203,5.67773,6.3457
			c2.40332,1.2666,4.8252,1.89844,7.27246,1.89844l1.5-0.03125c1.7002-0.21387,2.8584-0.41504,3.47656-0.60742
			c1.55176-0.44531,2.83203-0.97168,3.8418-1.5791c1.01074-0.60449,2-1.46094,2.9668-2.56543
			c0.96777-1.10645,1.79297-2.39355,2.47266-3.86035l0.38379-0.12891c0.10547,0,0.26562,0.06445,0.47852,0.19238
			c-0.02148,0.50977-0.04492,0.84082-0.06543,0.9873c-0.89258,3.5957-1.54199,6.05078-1.94434,7.36914
			c-0.34082,0.08496-0.76562,0.21289-1.27539,0.38379c-2.48926,0.85059-5.81738,1.27539-9.98535,1.27539
			c-3.35938,0-5.875-0.22949-7.54395-0.68555c-1.66895-0.45703-3.4873-1.16992-5.45508-2.13672
			c-1.96582-0.96875-3.69629-2.25-5.18555-3.84473c-1.4873-1.59375-2.69043-3.60938-3.60547-6.04297
			c-0.91406-2.43652-1.37012-5.08887-1.37012-7.95996c0-2.72168,0.36035-5.09863,1.08398-7.12891
			c0.72168-2.03027,1.83887-4.0874,3.34863-6.17236c1.51172-2.0835,3.29297-3.81641,5.34668-5.19971
			c2.05176-1.38184,4.33301-2.35986,6.84277-2.93359c1.76465-0.38281,4.26172-0.57422,7.49609-0.57422
			c2.36035,0,4.58105,0.31396,6.66602,0.94043C111.10889,5.84619,112.50244,6.45703,113.20361,7.05225"/>
		<path fill="#171C61" d="M145.25635,6.7334c0.16992,1.40332,0.25391,2.21143,0.25391,2.42529l-0.12695,2.83789
			c-0.04297,1.21191-0.09473,1.98779-0.15918,2.3291c-0.19141,0.08447-0.35059,0.12695-0.47949,0.12695l-0.28516-0.06396
			c-0.68262-2.97656-1.83594-5.146-3.46387-6.50635c-1.62402-1.36133-3.60742-2.04199-5.94531-2.04199
			c-2.42578,0-4.41504,0.68066-5.96777,2.04199c-1.55078,1.36035-2.32617,2.94482-2.32617,4.75146
			c0,1.38281,0.54199,2.64844,1.62598,3.79639c1.08496,1.14844,3.85938,2.86621,8.32617,5.15479
			c3.40039,1.75879,5.83691,3.19629,7.30273,4.31348c1.46777,1.11719,2.57227,2.41113,3.31836,3.87988
			c0.74414,1.46875,1.11621,3.1084,1.11621,4.91699c0,2.27637-0.5918,4.41699-1.77148,6.41699
			c-1.17969,2.00098-2.76953,3.50684-4.7666,4.51953c-2,1.00977-4.64746,1.51562-7.94336,1.51562
			c-2.87109,0-5.625-0.45703-8.26172-1.37305c-1.55176-0.55078-2.49902-0.99805-2.83887-1.33789
			c-0.34082-0.3418-0.50977-0.70312-0.50977-1.08496c0-0.23438,0.01953-0.53125,0.06348-0.89258
			c0.29688-2.50977,0.45703-4.57227,0.47852-6.18848c0.04395-1,0.11621-1.58496,0.22363-1.75488
			c0.08398-0.14844,0.24316-0.22266,0.47852-0.22266c0.19141,0,0.34375,0.06836,0.46191,0.20703
			c0.11621,0.13867,0.19629,0.39941,0.23926,0.7832c0.2334,2.61328,1.44629,4.95215,3.6377,7.0166
			c2.16797,2.0625,4.62402,3.09277,7.36621,3.09277c1.68066,0,3.22656-0.35059,4.6416-1.05273
			c1.41309-0.70215,2.51855-1.71582,3.31641-3.0459c0.79785-1.3291,1.19824-2.62012,1.19824-3.87402
			c0-1.72363-0.60645-3.29785-1.81934-4.72168c-1.21094-1.4248-3.64746-3.08789-7.30371-4.99219
			c-3.6582-1.90332-6.04102-3.29102-7.14551-4.16309c-1.78613-1.4248-3.12598-2.93408-4.01855-4.5293
			c-0.65918-1.2334-0.98926-2.66846-0.98926-4.30615c0-2.95654,1.16699-5.45898,3.50879-7.51172
			c2.33887-2.05176,5.47559-3.07764,9.40918-3.07764c2.16992,0,4.03906,0.24414,5.61523,0.73291
			C142.86279,5.23389,144.04346,5.86133,145.25635,6.7334"/>
	</g>
	<g>
		<path fill="#171C61" d="M5.98096,40.68262c-0.78027-2.07715-1.15234-4.69727-2.51367-6.43652
			c-1.23438-1.57617-2.32324,0.24219-3.4668,1.12988v11.50977h13.43359C10.08154,46.03711,7.22803,44,5.98096,40.68262"/>
		<path fill="#171C61" d="M23.271,38.0332c-1.12793-0.26953-2.51367-0.80469-4.19531-1.77246
			c-1.38721-0.7998-2.51025-1.80469-3.41992-2.87402C17.00342,36.70801,20.07031,38.25977,23.271,38.0332"/>
		<path fill="#171C61" d="M21.22656,4.55029c0.1958,1.15381,0.49902,2.34473-0.12256,3.15283
			c-0.89941,1.16895-2.43213,2.53955-2.72266,3.08447c-0.7915,1.4834-0.52393,1.47461-1.84375,2.93311
			c-2.30029,2.54053-6.78613,1.13623-7.52979-2.03662C8.30957,8.68848,9.71924,6.48779,12.33936,4.5918
			c0.01953-0.01318,0.0415-0.02734,0.06201-0.0415H0v22.91162c2.31055-2.99902,1.84619-1.11914,4.74072-5.24023
			c1.74902-2.8042,6.23535-2.87061,7.84912-0.1084c1.59521,2.73438,1.82568,6.7373,2.63477,9.92188
			c0.9917,1.40332,2.32178,2.77539,4.09717,3.79785c2.52539,1.4541,4.34375,1.88965,5.58154,1.93066
			c1.32324-0.34277,2.62256-0.98926,3.78662-1.94141c1.4165-1.16016,3.04004-1.99414,3.13379-0.70801
			c0.04004,0.56543-1.25488,0.98047-1.90234,2.20117c-0.66797,1.25781,3.38623-1.06836-1.01514,4.74316
			c-1.86426,2.46094-4.72754,4.08789-7.82568,4.82715h21.25488V4.55029H21.22656z"/>
	</g>
</g>
</svg>
